<?xml version="1.0" encoding="UTF-8" standalone="no"?>
<svg
   xmlns:dc="http://purl.org/dc/elements/1.1/"
   xmlns:cc="http://creativecommons.org/ns#"
   xmlns:rdf="http://www.w3.org/1999/02/22-rdf-syntax-ns#"
   xmlns:svg="http://www.w3.org/2000/svg"
   xmlns="http://www.w3.org/2000/svg"
   xmlns:sodipodi="http://sodipodi.sourceforge.net/DTD/sodipodi-0.dtd"
   xmlns:inkscape="http://www.inkscape.org/namespaces/inkscape"
   sodipodi:docname="camera.svg"
   inkscape:version="1.0 (4035a4f, 2020-05-01)"
   id="svg8"
   version="1.1"
   viewBox="0 0 12.592127 9.9524276"
   height="9.9524269mm"
   width="12.592127mm">
  <defs
     id="defs2" />
  <sodipodi:namedview
     fit-margin-bottom="0"
     fit-margin-right="0"
     fit-margin-left="0"
     fit-margin-top="0"
     inkscape:window-maximized="0"
     inkscape:window-y="25"
     inkscape:window-x="0"
     inkscape:window-height="774"
     inkscape:window-width="1252"
     inkscape:snap-global="false"
     showgrid="false"
     inkscape:document-rotation="0"
     inkscape:current-layer="layer1"
     inkscape:document-units="mm"
     inkscape:cy="219.75347"
     inkscape:cx="-34.737535"
     inkscape:zoom="0.98994949"
     inkscape:pageshadow="2"
     inkscape:pageopacity="0.0"
     borderopacity="1.0"
     bordercolor="#666666"
     pagecolor="#ffffff"
     id="base" />
  <metadata
     id="metadata5">
    <rdf:RDF>
      <cc:Work
         rdf:about="">
        <dc:format>image/svg+xml</dc:format>
        <dc:type
           rdf:resource="http://purl.org/dc/dcmitype/StillImage" />
        <dc:title></dc:title>
      </cc:Work>
    </rdf:RDF>
  </metadata>
  <g
     transform="translate(-129.78306,-14.932018)"
     id="layer1"
     inkscape:groupmode="layer"
     inkscape:label="Layer 1">
    <g
       transform="translate(11.244792,-43.183779)"
       id="g1152">
      <path
         id="path1073"
         style="fill:#e47949;fill-opacity:1;stroke:#000000;stroke-width:0.529167;stroke-miterlimit:4;stroke-dasharray:none;stroke-opacity:1"
         d="m 67.279761,54.901038 c 0,3.261726 -2.644152,5.905878 -5.905878,5.905878 -0.493531,0 -0.633217,-0.120786 -1.547876,-0.0052 -0.916191,0.115739 -2.127783,1.108857 -2.606943,0.373317 -0.262223,-0.402528 1.342744,-0.737842 0.763425,-1.222413 -2.503131,-2.093741 -2.514484,-3.546346 -2.514484,-5.051543 0,-3.261726 2.644152,-5.905878 5.905878,-5.905878 3.261726,0 5.905878,2.644152 5.905878,5.905878 z"
         sodipodi:nodetypes="sssssssss" />
      <g
         id="g1087"
         transform="translate(0.02362322)">
        <circle
           r="0.75595236"
           cy="54.42857"
           cx="59.153275"
           id="path1078"
           style="fill:#ffffff;fill-opacity:1;stroke:none;stroke-width:0.705556;stroke-miterlimit:4;stroke-dasharray:none;stroke-opacity:1" />
        <circle
           style="fill:#ffffff;fill-opacity:1;stroke:none;stroke-width:0.705556;stroke-miterlimit:4;stroke-dasharray:none;stroke-opacity:1"
           id="circle1080"
           cx="61.350258"
           cy="54.42857"
           r="0.75595236" />
        <circle
           r="0.75595236"
           cy="54.42857"
           cx="63.547245"
           id="circle1082"
           style="fill:#ffffff;fill-opacity:1;stroke:none;stroke-width:0.705556;stroke-miterlimit:4;stroke-dasharray:none;stroke-opacity:1" />
      </g>
    </g>
    <g
       transform="translate(-16.212206,-22.541003)"
       id="g1127">
      <path
         sodipodi:nodetypes="sssssssss"
         d="m 60.686697,37.163073 c 0,4.082308 3.309366,7.391675 7.391675,7.391675 0.617693,0 0.792521,-0.151174 1.937289,-0.0065 1.146686,0.144855 2.66309,1.387822 3.262796,0.467235 0.328193,-0.503795 -1.680551,-0.923467 -0.955487,-1.529946 3.132867,-2.620483 3.147076,-4.438534 3.147076,-6.322407 0,-4.082309 -3.309365,-7.391675 -7.391674,-7.391675 -4.082309,0 -7.391675,3.309366 -7.391675,7.391675 z"
         style="fill:#f2f2f2;stroke:#000000;stroke-width:0.707142;stroke-miterlimit:4;stroke-dasharray:none;stroke-opacity:1"
         id="path1076" />
      <g
         id="g1106"
         transform="translate(-0.54307702,0.17758257)">
        <rect
           ry="0.53453827"
           y="34.344135"
           x="63.877415"
           height="1.0690765"
           width="9.4880676"
           id="rect1097"
           style="fill:#000000;fill-opacity:1;stroke:none;stroke-width:0.663397;stroke-miterlimit:4;stroke-dasharray:none;stroke-opacity:1" />
        <rect
           style="fill:#000000;fill-opacity:1;stroke:none;stroke-width:0.663397;stroke-miterlimit:4;stroke-dasharray:none;stroke-opacity:1"
           id="rect1099"
           width="9.4880676"
           height="1.0690765"
           x="63.877415"
           y="36.849785"
           ry="0.53453827" />
        <rect
           ry="0.53453827"
           y="39.355438"
           x="63.877415"
           height="1.0690765"
           width="5.8799291"
           id="rect1101"
           style="fill:#000000;fill-opacity:1;stroke:none;stroke-width:0.522241;stroke-miterlimit:4;stroke-dasharray:none;stroke-opacity:1" />
      </g>
      <path
         id="path1110"
         style="fill:#ffffff;fill-opacity:1;stroke:none;stroke-width:0.652439;stroke-miterlimit:4;stroke-dasharray:none;stroke-opacity:1"
         d="m 68.705095,30.663569 a 6.4812859,6.4812859 0 0 0 -6.191064,3.19015 6.4812859,6.4812859 0 0 0 0.274559,6.958799 l 0.278478,-0.477691 a 5.8799295,6.0135645 30.240785 0 1 -0.03338,-6.178164 5.8799295,6.0135645 30.240785 0 1 5.392666,-3.014955 z" />
    </g>
    <path
       d="m 84.702766,9.6674791 c -0.639299,0 -1.299662,0.2725288 -1.299662,0.8857349 0,0.342609 -0.116211,1.040704 1.005623,1.983857 0.881512,0.741111 1.003091,0.867431 1.332735,1.07642 v 0.0057 h 0.0088 c 0.03842,0.02425 0.06768,0.04505 0.113689,0.07286 0.449178,-0.271489 0.464328,-0.32191 1.455208,-1.154969 1.121831,-0.943153 1.005623,-1.641248 1.005623,-1.983857 0,-0.6132061 -0.659847,-0.8857349 -1.299146,-0.8857349 -0.620652,0 -1.122847,0.4694029 -1.151866,1.0578179 H 85.85465 C 85.825613,10.136882 85.323418,9.6674791 84.702766,9.6674791 Z"
       style="fill:#e17446;fill-opacity:1;stroke:none;stroke-width:0.564999;stroke-miterlimit:4;stroke-dasharray:none;stroke-opacity:1"
       id="path1154" />
    <path
       inkscape:transform-center-y="0.045483412"
       inkscape:transform-center-x="-0.22493572"
       d="m 88.114455,20.184181 -1.231855,-1.403787 -1.854763,0.218945 0.954416,-1.605358 -0.781383,-1.696327 1.821717,0.411621 1.371843,-1.267333 0.171467,1.859754 1.629227,0.913072 -1.715744,0.73777 z"
       inkscape:randomized="0"
       inkscape:rounded="0"
       inkscape:flatsided="false"
       sodipodi:arg2="1.9373155"
       sodipodi:arg1="1.3089969"
       sodipodi:r2="1.4062177"
       sodipodi:r1="2.8124354"
       sodipodi:cy="17.467577"
       sodipodi:cx="87.386543"
       sodipodi:sides="5"
       id="path1164"
       style="fill:#f6cd61;fill-opacity:1;stroke:none;stroke-width:0.425078;stroke-miterlimit:4;stroke-dasharray:none;stroke-opacity:1"
       sodipodi:type="star" />
    <g
       transform="translate(-4.2763125,-45.970359)"
       id="g1222">
      <path
         id="rect1169"
         style="opacity:1;fill:#ececec;fill-opacity:1;stroke:#000000;stroke-width:2.13543;stroke-miterlimit:4;stroke-dasharray:none;stroke-opacity:1"
         d="m 377.85742,181.07227 v 77.5 h 45.71485 0.53515 v -0.0195 a 7.8571431,7.8571431 0 0 0 7.24805,-6.76757 h 0.0723 v -1.07032 a 7.8571431,7.8571431 0 0 0 0,-0.0859 v -69.55664 z"
         transform="scale(0.26458333)" />
      <path
         d="m 101.62851,49.255046 v 9.260416 h 9.39403 0.10996 v -0.0024 a 1.6145786,0.93884404 0 0 0 1.48943,-0.808652 h 0.0148 v -0.127892 a 1.6145786,0.93884404 0 0 0 0,-0.01027 v -8.311252 z"
         style="opacity:1;fill:#5a6363;fill-opacity:1;stroke:#000000;stroke-width:0.334616;stroke-miterlimit:4;stroke-dasharray:none;stroke-opacity:1"
         id="path1180" />
      <rect
         style="opacity:1;fill:#f98045;fill-opacity:1;stroke:#000000;stroke-width:0.564999;stroke-miterlimit:4;stroke-dasharray:none;stroke-opacity:1"
         id="rect1182"
         width="6.6618304"
         height="6.6618304"
         x="103.80171"
         y="50.554314" />
      <path
         id="rect1186"
         style="opacity:1;fill:#fdcc48;fill-opacity:1;stroke:#000000;stroke-width:2.13543;stroke-miterlimit:4;stroke-dasharray:none;stroke-opacity:1"
         d="m 387.85742,230.53516 v 4.55468 h -4.55469 v 6.07032 h 4.55469 v 4.55468 h 6.07031 v -4.55468 h 4.55469 v -6.07032 h -4.55469 v -4.55468 z"
         transform="scale(0.26458333)" />
      <circle
         style="opacity:1;fill:#fdcc48;fill-opacity:1;stroke:#000000;stroke-width:0.564999;stroke-miterlimit:4;stroke-dasharray:none;stroke-opacity:1"
         id="path1188"
         cx="111.29037"
         cy="61.917225"
         r="1.1575521" />
      <circle
         r="1.1575521"
         cy="63.523624"
         cx="108.83352"
         id="circle1190"
         style="opacity:1;fill:#fdcc48;fill-opacity:1;stroke:#000000;stroke-width:0.564999;stroke-miterlimit:4;stroke-dasharray:none;stroke-opacity:1" />
      <rect
         style="opacity:1;fill:#000000;fill-opacity:1;stroke:none;stroke-width:0.484992;stroke-miterlimit:4;stroke-dasharray:none;stroke-opacity:1"
         id="rect1192"
         width="1.7953868"
         height="0.66145825"
         x="37.667805"
         y="118.68089"
         ry="0.33072913"
         transform="rotate(-40.023737)" />
      <rect
         ry="0.33072913"
         y="120.83244"
         x="36.024845"
         height="0.66145825"
         width="1.7953868"
         id="rect1194"
         style="opacity:1;fill:#000000;fill-opacity:1;stroke:none;stroke-width:0.484992;stroke-miterlimit:4;stroke-dasharray:none;stroke-opacity:1"
         transform="rotate(-41.395732)" />
      <rect
         style="opacity:1;fill:#ffffff;fill-opacity:1;stroke:none;stroke-width:0.564999;stroke-miterlimit:4;stroke-dasharray:none;stroke-opacity:1"
         id="rect1196"
         width="3.5907736"
         height="0.8504464"
         x="104.52188"
         y="51.121277" />
      <rect
         y="-105.40614"
         x="51.889271"
         height="0.8504464"
         width="3.5907736"
         id="rect1198"
         style="opacity:1;fill:#ffffff;fill-opacity:1;stroke:none;stroke-width:0.564999;stroke-miterlimit:4;stroke-dasharray:none;stroke-opacity:1"
         transform="rotate(90)" />
    </g>
    <g
       transform="translate(3.7797619,-41.104911)"
       id="g1248">
      <rect
         ry="0.66817379"
         y="70.868004"
         x="105.52095"
         height="8.5526247"
         width="11.292137"
         id="rect1241"
         style="opacity:1;fill:#f6c455;fill-opacity:1;stroke:#000000;stroke-width:0.564999;stroke-miterlimit:4;stroke-dasharray:none;stroke-opacity:1"
         transform="rotate(-4.4218938)" />
      <rect
         style="opacity:1;fill:#659bc1;fill-opacity:1;stroke:#000000;stroke-width:0.564999;stroke-miterlimit:4;stroke-dasharray:none;stroke-opacity:1"
         id="rect1224"
         width="11.292137"
         height="8.5526247"
         x="112.18638"
         y="63.276058"
         ry="0.66817379" />
      <rect
         y="63.224213"
         x="112.13453"
         height="5.6495352"
         width="11.39583"
         id="rect1226"
         style="opacity:1;fill:#e6eff0;fill-opacity:1;stroke:#000000;stroke-width:0.461306;stroke-miterlimit:4;stroke-dasharray:none;stroke-opacity:1"
         ry="0.86862594" />
      <path
         id="rect1228"
         style="opacity:1;fill:#94c365;fill-opacity:1;stroke:#000000;stroke-width:0.34118;stroke-miterlimit:4;stroke-dasharray:none;stroke-opacity:1"
         d="m 113.70097,66.465191 c -0.2562,8e-6 -0.51224,0.09817 -0.70848,0.294556 l -0.80615,0.806669 v 2.363679 l 5.12423,-10e-4 c 0.0125,-5e-6 0.0243,0.0014 0.0367,0.0016 -0.0379,-0.186457 -0.12864,-0.364403 -0.27388,-0.509532 l -2.66341,-2.661335 c -0.19638,-0.196234 -0.4528,-0.294564 -0.709,-0.294556 z" />
      <circle
         style="opacity:1;fill:#fbc459;fill-opacity:1;stroke:#000000;stroke-width:0.564999;stroke-miterlimit:4;stroke-dasharray:none;stroke-opacity:1"
         id="path1239"
         cx="119.33585"
         cy="65.881943"
         r="1.0690781" />
    </g>
    <g
       transform="translate(22.489583,-33.261905)"
       id="g1271">
      <rect
         style="opacity:1;fill:#fbc459;fill-opacity:1;stroke:#000000;stroke-width:0.354586;stroke-miterlimit:4;stroke-dasharray:none;stroke-opacity:1"
         id="rect1254"
         width="6.0895171"
         height="2.4813795"
         x="110.57819"
         y="48.371216"
         ry="0.30016685" />
      <rect
         style="opacity:1;fill:#e6f2f3;fill-opacity:1;stroke:#000000;stroke-width:0.564999;stroke-miterlimit:4;stroke-dasharray:none;stroke-opacity:1"
         id="rect1250"
         width="12.027128"
         height="8.2853556"
         x="107.57598"
         y="49.578495"
         ry="1.0022607" />
      <rect
         ry="0.28538525"
         y="55.247684"
         x="107.76614"
         height="2.359185"
         width="11.579983"
         id="rect1252"
         style="opacity:1;fill:#946a43;fill-opacity:1;stroke:#000000;stroke-width:0.476781;stroke-miterlimit:4;stroke-dasharray:none;stroke-opacity:1" />
      <circle
         style="opacity:1;fill:#94c364;fill-opacity:1;stroke:#000000;stroke-width:0.526;stroke-miterlimit:4;stroke-dasharray:none;stroke-opacity:1"
         id="path1256"
         cx="113.58955"
         cy="53.721172"
         r="2.3386083" />
      <circle
         cy="53.721172"
         cx="113.58955"
         id="circle1258"
         style="opacity:1;fill:#e6f3f7;fill-opacity:1;stroke:#000000;stroke-width:0.648176;stroke-miterlimit:4;stroke-dasharray:none;stroke-opacity:1"
         r="0.92361933" />
      <rect
         style="opacity:1;fill:#e6f3f7;fill-opacity:1;stroke:#000000;stroke-width:0.23;stroke-miterlimit:4;stroke-dasharray:none;stroke-opacity:1"
         id="rect1260"
         width="1.2695302"
         height="1.2027128"
         x="108.51143"
         y="50.513943"
         ry="0" />
      <rect
         style="opacity:1;fill:#000000;fill-opacity:1;stroke:none;stroke-width:0.23;stroke-miterlimit:4;stroke-dasharray:none;stroke-opacity:1"
         id="rect1262"
         width="2.0713389"
         height="0.66817379"
         x="116.39588"
         y="50.580757" />
    </g>
    <g
       transform="translate(37.417734,-23.786988)"
       id="g1291">
      <rect
         style="opacity:1;fill:#e9f1f1;fill-opacity:1;stroke:#000000;stroke-width:0.43;stroke-miterlimit:4;stroke-dasharray:none;stroke-opacity:1"
         id="rect1273"
         width="7.8844509"
         height="10.423512"
         x="94.145691"
         y="51.248928"
         ry="0.93544334" />
      <rect
         ry="0.7515502"
         y="52.206657"
         x="94.902969"
         height="8.3744164"
         width="6.1694431"
         id="rect1275"
         style="opacity:1;fill:#f6c258;fill-opacity:1;stroke:#000000;stroke-width:0.340938;stroke-miterlimit:4;stroke-dasharray:none;stroke-opacity:1" />
      <circle
         style="opacity:1;fill:#280b0b;fill-opacity:1;stroke:none;stroke-width:0.430001;stroke-miterlimit:4;stroke-dasharray:none;stroke-opacity:1"
         id="path1277"
         cx="97.620193"
         cy="61.137901"
         r="0.20045215" />
      <rect
         style="opacity:1;fill:#d3384e;fill-opacity:1;stroke:#000000;stroke-width:0.430001;stroke-miterlimit:4;stroke-dasharray:none;stroke-opacity:1"
         id="rect1279"
         width="2.6058779"
         height="2.6726952"
         x="97.085655"
         y="55.391609" />
      <circle
         style="opacity:1;fill:#e6f2f5;fill-opacity:1;stroke:#000000;stroke-width:0.430001;stroke-miterlimit:4;stroke-dasharray:none;stroke-opacity:1"
         id="path1281"
         cx="96.751564"
         cy="56.260239"
         r="0.66817379" />
      <rect
         style="opacity:1;fill:#e6f2f5;fill-opacity:1;stroke:#000000;stroke-width:0.430001;stroke-miterlimit:4;stroke-dasharray:none;stroke-opacity:1"
         id="rect1283"
         width="0.66817379"
         height="4.6772165"
         x="31.956902"
         y="102.12741"
         ry="0.33408689"
         transform="rotate(-41.979681)" />
    </g>
  </g>
</svg>
